<svg xmlns="http://www.w3.org/2000/svg" width="65.061" height="113.187" viewBox="0 0 65.061 113.187">
  <g id="logo" transform="translate(-920.575 -470.533)">
    <path id="Path_1" d="M114.72,70.454V81.563A17.688,17.688,0,0,1,112.3,90.48l-.312.528-17.06,29.145a4.706,4.706,0,0,0,4.076,7.059H102a1.793,1.793,0,0,1,1.794,1.794v2.3A1.793,1.793,0,0,1,102,133.1H99.025a10.6,10.6,0,0,1-9.181-15.9l16.571-28.269A17.67,17.67,0,0,0,108.835,80V76.616a1.774,1.774,0,0,0-1.776-1.76,1.774,1.774,0,0,1-1.23-.515,1.755,1.755,0,0,1-.515-1.245V70.454a1.761,1.761,0,0,1,1.761-1.76h5.884A1.76,1.76,0,0,1,114.72,70.454Z" transform="translate(832.167 429.305)" fill="#ba1700"/>
    <path id="Path_2" d="M177.863,133.1h-3.457a1.794,1.794,0,0,1-1.794-1.794v-2.3a1.794,1.794,0,0,1,1.794-1.794h3.475a4.706,4.706,0,0,0,4.076-7.059l-16.8-29.145-.181-.317a17.619,17.619,0,0,1-2.364-8.816V70.454a1.76,1.76,0,0,1,1.76-1.76h5.885a1.76,1.76,0,0,1,1.76,1.76V73.1a1.774,1.774,0,0,1-1.776,1.76,1.774,1.774,0,0,0-1.23.515,1.756,1.756,0,0,0-.515,1.245V80.3a17.658,17.658,0,0,0,2.359,8.816L187.044,117.2A10.6,10.6,0,0,1,177.863,133.1Z" transform="translate(797.156 429.305)" fill="#ba1700"/>
    <circle id="Ellipse_1" cx="5.66" cy="5.66" r="5.66" transform="translate(954.104 476.596)" fill="#b3ffcb"/>
    <circle id="Ellipse_2" cx="5.229" cy="5.229" r="5.229" transform="translate(942.745 470.533)" fill="#b3ffcb"/>
    <circle id="Ellipse_3" cx="3.84" cy="3.84" r="3.84" transform="translate(946.234 489.068)" fill="#b3ffcb"/>
    <path id="Path_3" d="M175.2,179.447a5.131,5.131,0,0,1-5.339,5.127,5.183,5.183,0,0,1-4.919-5.243,5.125,5.125,0,0,1,2.4-4.226,2.37,2.37,0,0,0,1.111-2V159.221a2.368,2.368,0,0,0-1.111-2,5.126,5.126,0,0,1-2.4-4.227,5.183,5.183,0,0,1,4.919-5.243,5.132,5.132,0,0,1,2.933,9.475,2.355,2.355,0,0,0-1.1,2V173.1a2.357,2.357,0,0,0,1.1,2A5.126,5.126,0,0,1,175.2,179.447Z" transform="translate(796.055 392.006)" fill="#4ec300"/>
    <path id="Path_4" d="M125.918,179.447a5.131,5.131,0,0,1-5.339,5.127,5.183,5.183,0,0,1-4.919-5.243,5.126,5.126,0,0,1,2.4-4.226,2.368,2.368,0,0,0,1.111-2V159.221a2.367,2.367,0,0,0-1.111-2,5.127,5.127,0,0,1-2.4-4.227,5.183,5.183,0,0,1,4.919-5.243,5.132,5.132,0,0,1,2.933,9.475,2.356,2.356,0,0,0-1.1,2V173.1a2.358,2.358,0,0,0,1.1,2A5.126,5.126,0,0,1,125.918,179.447Z" transform="translate(819.309 392.006)" fill="#4ec300"/>
    <path id="Path_5" d="M150.547,180.173a5.132,5.132,0,1,1-8.043-4.226,3.051,3.051,0,0,0,1.288-2.521V146.037a3.053,3.053,0,0,0-1.29-2.523,5.115,5.115,0,0,1-2.217-4.108,5.132,5.132,0,1,1,10.262-.112,5.121,5.121,0,0,1-2.236,4.235,3.032,3.032,0,0,0-1.276,2.515V173.42a3.03,3.03,0,0,0,1.274,2.514A5.129,5.129,0,0,1,150.547,180.173Z" transform="translate(807.69 398.415)" fill="#4ec300"/>
    <circle id="Ellipse_4" cx="1.889" cy="1.889" r="1.889" transform="translate(964.238 542.994)" fill="#d2ffdf"/>
    <circle id="Ellipse_5" cx="1.889" cy="1.889" r="1.889" transform="translate(964.238 569.565)" fill="#d2ffdf"/>
    <circle id="Ellipse_6" cx="1.889" cy="1.889" r="1.889" transform="translate(938.209 542.994)" fill="#d2ffdf"/>
    <circle id="Ellipse_7" cx="1.889" cy="1.889" r="1.889" transform="translate(938.209 569.565)" fill="#d2ffdf"/>
    <circle id="Ellipse_8" cx="1.889" cy="1.889" r="1.889" transform="translate(951.217 535.819)" fill="#d2ffdf"/>
    <circle id="Ellipse_9" cx="1.889" cy="1.889" r="1.889" transform="translate(951.215 576.698)" fill="#d2ffdf"/>
  </g>
</svg>
